<?xml version="1.0" encoding="utf-8"?>
<!-- Generator: Adobe Illustrator 25.0.1, SVG Export Plug-In . SVG Version: 6.00 Build 0)  -->
<svg version="1.1" id="Camada_1" xmlns="http://www.w3.org/2000/svg" xmlns:xlink="http://www.w3.org/1999/xlink" x="0px" y="0px"
	 viewBox="0 0 500 500" style="enable-background:new 0 0 500 500;" xml:space="preserve">
<style type="text/css">
	.st0{fill:#123A5F;}
	.st1{fill:#145593;}
	.st2{fill:#D2D528;}
	.st3{fill:#0B5690;}
	.st4{fill:none;stroke:#145593;stroke-width:1.5;stroke-miterlimit:10;}
	.st5{fill:#D2D600;}
</style>
<rect x="-1" class="st0" width="501" height="501"/>
<path class="st1" d="M119.7,376.9c44.3,45.3,110.8,68.9,181.8,53.4c74.9-16.3,132.5-76.5,146.5-151.8c6.5-35.4,3.4-69.6-7.2-100.2
	l59.2,78.5V500H216"/>
<path class="st2" d="M425.9,146.6c-33.7-56.9-95.7-95-166.6-95c-106.8,0-193.5,86.6-193.5,193.5c0,50.4,19.3,96.4,50.9,130.8
	c35.4,38.5,86.1,62.7,142.5,62.7c106.8,0,193.5-86.6,193.5-193.5C452.8,209.1,443,175.5,425.9,146.6z M324.1,304.4
	c-22.7,0-41.2-18.4-41.2-41.2c0-22.7,18.4-41.1,41.2-41.1s41.2,18.4,41.2,41.1C365.3,286,346.9,304.4,324.1,304.4z"/>
<path class="st3" d="M212,185.4"/>
<path class="st3" d="M111.9,215.3c-1.4,8.6-2.1,17.3-2.5,26.2c-0.1,1.4-0.2,2.7-0.5,4.1c-0.7,2.9-3.2,5-6.1,5.2
	c-3,0.2-6-1.3-6.8-4.2c-0.7-2.7-1-5.5-0.9-8.3c2-53.5,23.9-97,66.7-129.1c33.2-24.9,71-35.3,112.3-31.6
	c36.4,3.2,68.3,17.3,95.6,41.7c1.2,1.1,2.4,2.4,3.3,3.8c2.2,3.1,1.5,7.3-1.6,9.5c-2,1.4-4.7,1.7-6.9,0.6c-1.2-0.6-2.3-1.3-3.2-2.2
	c-22.2-20.3-48.1-33.1-77.7-37.8c-41.2-6.5-78.9,2.6-112.8,27.1c-24.8,18-42.3,41.6-52.6,70.4C115.3,198.8,113.3,206.9,111.9,215.3z
	"/>
<path class="st3" d="M216.3,177.4"/>
<path class="st3" d="M423.6,249.1c-1.8,58.3-26.1,104.7-74.7,137.4c-30.8,20.7-65.2,29.1-102.3,26.4c-34.8-2.5-65.6-15.1-92.5-37.1
	c-1.8-1.4-3.3-3-4.5-4.8c-2-3.4-1.2-7.8,2-10.2c3-2.4,7.4-2.3,10.2,0.3c19.1,17.6,41.8,28.4,67.1,33.3c44.6,8.7,85.4-0.6,121.3-28.4
	c31.4-24.3,49.9-56.6,55.9-95.9c3.2-21.1,1.7-42.6-4.4-63c-1.2-3.6,0.5-7.6,4-9.1c3.4-1.7,7.6-0.7,9.9,2.4c0.9,1.2,1.5,2.5,1.9,3.9
	C421.6,218.9,423.6,234,423.6,249.1z"/>
<g>
	<path class="st1" d="M233.9,359.1"/>
</g>
<g>
	<g>
		<path class="st1" d="M324.2,310.6c0,0-13.3,29.7-34.4,11.9c0,0-7-6.5-6.7-17.5c0,0-116.9-1.6-117-1.6c-0.4,0,3,13,3.3,13.8
			c4.3,11.1,12.1,17.6,23.9,17.9c8.6,0.2,17.2,0.4,25.7,0.6c22.7,0.5,45.5,0.8,68.3,0.5c6.8-0.1,13.7-0.2,20.6-0.8
			C307.8,335.5,327,327,324.2,310.6z"/>
	</g>
	<g>
		<g>
			<g>
				<path class="st1" d="M319.6,196.1c-0.4,26-0.9,52-1.3,78c-0.1,6.6-0.2,13.2-0.3,19.9c-0.1,6.2,0.1,12.6-0.4,18.8
					c0,0.4-0.1,0.8-0.1,1.2c0,0.3,0,1.3,0,0.2c0,0.7-0.3,1.6-0.4,2.3c-0.1,0.6-0.3,1.1-0.4,1.7c-0.1,0.4-0.3,0.8-0.4,1.2
					c-0.4,1.1,0.5-0.8-0.1,0.3c-0.3,0.6-0.6,1.2-1,1.8c-0.2,0.4-0.5,1-0.9,1.2c0.1-0.2,0.3-0.4,0.4-0.5c-0.2,0.2-0.3,0.4-0.5,0.5
					c-0.2,0.2-0.3,0.4-0.5,0.5c-0.2,0.2-1.6,1.3-1.5,1.4c0-0.1,1.1-0.8,0.3-0.2c-0.2,0.1-0.4,0.3-0.6,0.4c-0.5,0.3-1,0.6-1.5,0.9
					c-0.3,0.1-0.5,0.2-0.8,0.4c-0.7,0.3,1.3-0.5,0.2-0.1c-0.5,0.2-1.1,0.4-1.6,0.5c-0.6,0.2-1.1,0.3-1.7,0.4
					c-0.4,0.1-2.4,0.3-0.7,0.2c-1.2,0.1-2.5,0.2-3.7,0.2c-0.8,0-1.5,0-2.3-0.1c-0.3,0-0.5,0-0.8-0.1c-1.3-0.1,1.2,0.2-0.1,0
					c-1.4-0.3-2.7-0.6-4-1.1c-1.2-0.4,0.8,0.4,0.1,0c-0.4-0.2-0.8-0.4-1.2-0.6c-0.4-0.2-1.4-0.6-1.6-1c0.2,0.1,0.3,0.3,0.5,0.4
					c-0.2-0.2-0.4-0.3-0.6-0.5c-0.3-0.3-0.6-0.5-0.8-0.8c-0.2-0.2-0.3-0.4-0.5-0.6c-0.2-0.2-0.3-0.4-0.5-0.6
					c0.1,0.2,0.3,0.3,0.4,0.5c-0.4-0.2-1-1.5-1.2-1.9c-0.2-0.4-0.8-1.2-0.9-1.7c0.1,0.2,0.2,0.4,0.3,0.6c-0.1-0.2-0.2-0.5-0.3-0.7
					c-0.1-0.4-0.3-0.7-0.4-1.1c-0.2-0.7-0.4-1.4-0.5-2.1c-0.1-0.6-0.4-1.5-0.4-2.1c-0.1,1.1,0.1,0.8,0.1,0.3c0-0.4-0.1-0.9-0.1-1.3
					c-0.1-1.4-0.1-2.7,0.1-4.1c0.3-3-2.7-5.5-5.5-5.5c-3.1,0-6.2,0-9.3,0c-7.4,0-14.9,0-22.3,0c-9,0-18,0-27,0c-7.8,0-15.6,0-23.3,0
					c-3.8,0-7.6-0.2-11.3,0c-0.1,0-0.1,0-0.2,0c1.8,1.8,3.7,3.7,5.5,5.5c0-5.2,0-10.5,0-15.7c0-12.5,0-25,0-37.5
					c0-15.1,0-30.2,0-45.3c0-13.1,0-26.1,0-39.2c0-6.4,0.2-12.7,0-19.1c0-0.1,0-0.2,0-0.3c-1.8,1.8-3.7,3.7-5.5,5.5
					c3.1,0,6.1,0,9.2,0c7.3,0,14.7,0,22,0c8.9,0,17.7,0,26.6,0c7.6,0,15.3,0,22.9,0c3.7,0,7.5,0.2,11.2,0c0.1,0,0.1,0,0.2,0
					c-1.8-1.8-3.7-3.7-5.5-5.5c0,4.9,0,9.8,0,14.7c0,7.8,0,15.5,0,23.3c0,1.8,0,3.6,0,5.4c0,3,2.5,5.4,5.5,5.5
					c5,0.1,10,0.3,15.1,0.4c8,0.2,16,0.4,24,0.7c1.8,0.1,3.7,0.1,5.5,0.2c2.9,0.1,5.6-2.6,5.5-5.5c-0.1-3-2.4-5.4-5.5-5.5
					c-5-0.1-10-0.3-15.1-0.4c-8-0.2-16-0.4-24-0.7c-1.8-0.1-3.7-0.1-5.5-0.2c1.8,1.8,3.7,3.7,5.5,5.5c0-4.9,0-9.8,0-14.7
					c0-7.8,0-15.5,0-23.3c0-1.8,0-3.6,0-5.4c0-3-2.5-5.5-5.5-5.5c-3.1,0-6.1,0-9.2,0c-7.3,0-14.7,0-22,0c-8.9,0-17.7,0-26.6,0
					c-7.6,0-15.3,0-22.9,0c-3.7,0-7.5-0.1-11.2,0c-0.1,0-0.1,0-0.2,0c-3,0-5.5,2.5-5.5,5.5c0,5.2,0,10.5,0,15.7c0,12.5,0,25,0,37.5
					c0,15.1,0,30.2,0,45.3c0,13.1,0,26.1,0,39.2c0,6.4-0.1,12.7,0,19.1c0,0.1,0,0.2,0,0.3c0,3,2.5,5.5,5.5,5.5c3.1,0,6.2,0,9.3,0
					c7.4,0,14.9,0,22.3,0c9,0,18,0,27,0c7.8,0,15.6,0,23.3,0c3.8,0,7.6,0.2,11.3,0c0.1,0,0.1,0,0.2,0c-1.8-1.8-3.7-3.7-5.5-5.5
					c-0.5,5.9,0.7,12.1,3.5,17.4c3,5.7,8.5,9.7,14.7,11.2c11.5,2.8,25.6-0.9,31-12.2c3.1-6.4,3.2-13.3,3.2-20.2
					c0-6.9,0.2-13.9,0.3-20.8c0.2-13.9,0.5-27.7,0.7-41.6c0.3-15.4,0.5-30.8,0.8-46.3c0-2.9-2.6-5.6-5.5-5.5
					C322.1,190.7,319.7,193,319.6,196.1z"/>
			</g>
		</g>
		<g>
			<g>
				<path class="st1" d="M325.1,190.6c-5-0.1-10-0.3-15.1-0.4c-8-0.2-16-0.4-24-0.7c-1.8-0.1-3.7-0.1-5.5-0.2
					c1.8,1.8,3.7,3.7,5.5,5.5c0-4.9,0-9.8,0-14.7c0-7.8,0-15.5,0-23.3c0-1.8,0-3.6,0-5.4c-3.1,1.3-6.3,2.6-9.4,3.9
					c5,5,10.1,10.1,15.1,15.1c8,8,16,16,24.1,24.1c1.8,1.8,3.7,3.7,5.5,5.5c2,2,5.8,2.2,7.8,0c2-2.2,2.2-5.6,0-7.8
					c-5-5-10.1-10.1-15.1-15.1c-8-8-16-16-24.1-24.1c-1.8-1.8-3.7-3.7-5.5-5.5c-3.4-3.4-9.4-0.9-9.4,3.9c0,4.9,0,9.8,0,14.7
					c0,7.8,0,15.5,0,23.3c0,1.8,0,3.6,0,5.4c0,3,2.5,5.4,5.5,5.5c5,0.1,10,0.3,15.1,0.4c8,0.2,16,0.4,24,0.7
					c1.8,0.1,3.7,0.1,5.5,0.2c2.9,0.1,5.6-2.6,5.5-5.5C330.5,193,328.2,190.6,325.1,190.6z"/>
			</g>
		</g>
	</g>
	<g>
		<g>
			<path class="st1" d="M213.2,222.1c8.8,0,17.6,0,26.4,0c14,0,28,0,42.1,0c3.2,0,6.4,0,9.6,0c2.6,0,5.1-2.3,5-5c-0.1-2.7-2.2-5-5-5
				c-8.8,0-17.6,0-26.4,0c-14,0-28,0-42.1,0c-3.2,0-6.4,0-9.6,0c-2.6,0-5.1,2.3-5,5C208.3,219.8,210.4,222.1,213.2,222.1
				L213.2,222.1z"/>
		</g>
	</g>
	<g>
		<g>
			<path class="st1" d="M212.7,244.1c5.3,0,10.7,0,16,0c8.5,0,16.9,0,25.4,0c2,0,3.9,0,5.9,0c2.6,0,5.1-2.3,5-5c-0.1-2.7-2.2-5-5-5
				c-5.3,0-10.7,0-16,0c-8.5,0-16.9,0-25.4,0c-2,0-3.9,0-5.9,0c-2.6,0-5.1,2.3-5,5C207.8,241.9,209.9,244.1,212.7,244.1L212.7,244.1
				z"/>
		</g>
	</g>
	<g>
		<g>
			<path class="st1" d="M211.1,265.5c5.3,0,10.7,0,16,0c8.5,0,16.9,0,25.4,0c2,0,3.9,0,5.9,0c2.6,0,5.1-2.3,5-5c-0.1-2.7-2.2-5-5-5
				c-5.3,0-10.7,0-16,0c-8.5,0-16.9,0-25.4,0c-2,0-3.9,0-5.9,0c-2.6,0-5.1,2.3-5,5C206.2,263.2,208.3,265.5,211.1,265.5L211.1,265.5
				z"/>
		</g>
	</g>
</g>
<ellipse transform="matrix(0.9239 -0.3827 0.3827 0.9239 -76.0799 144.0801)" class="st1" cx="324.1" cy="263.3" rx="41.2" ry="41.2"/>
<path class="st4" d="M200.8,102.7"/>
<g>
	<g>
		<path class="st5" d="M325.1,286.7c-2.2,0-4.4-0.3-6.6-0.8c-2.2-0.6-4.2-1.3-6-2.2s-3-1.8-3.8-2.8l4.1-7.3c1.7,1.5,3.5,2.6,5.7,3.4
			c2.1,0.8,4.3,1.2,6.6,1.2c2.5,0,4.4-0.5,5.8-1.5s2-2.4,2-4.1v0c0-1.4-0.3-2.4-1-3.1c-0.7-0.7-1.6-1.3-2.7-1.6
			c-1.1-0.3-2.3-0.6-3.6-0.9c-1.7-0.3-3.4-0.7-5.1-1.1c-1.7-0.4-3.3-1.1-4.7-2c-1.4-0.9-2.6-2.2-3.5-3.9c-0.9-1.7-1.3-4-1.3-6.8v0
			c0-4.6,1.4-8.1,4.2-10.6c2.8-2.5,6.7-3.8,11.8-3.8c2.3,0,4.7,0.4,7.1,1.3c2.4,0.9,4.6,2.1,6.7,3.6l-3.7,7.5
			c-1.6-1.3-3.3-2.2-5-2.9s-3.4-1-5-1c-2.3,0-4.1,0.4-5.3,1.3c-1.3,0.9-1.9,2.1-1.9,3.8v0c0,1.5,0.4,2.7,1.1,3.4
			c0.8,0.8,1.7,1.4,3,1.7c1.2,0.4,2.6,0.7,4,1c1.7,0.3,3.3,0.8,4.9,1.3c1.6,0.5,3.1,1.2,4.5,2.2c1.3,0.9,2.4,2.2,3.2,3.9
			c0.8,1.7,1.2,3.8,1.2,6.5v0.1c0,4.5-1.4,8-4.3,10.5S330.4,286.7,325.1,286.7z M321.6,241v-7.4h8.8v7.4H321.6z M321.6,292v-7.8h8.8
			v7.8H321.6z"/>
	</g>
</g>
</svg>
